<svg width="32" height="32" viewBox="0 0 32 32" fill="none" xmlns="http://www.w3.org/2000/svg">
<path d="M28.517 20.5155C30.0246 9.494 22.5167 7.90836 18.5742 8.49323C14.3112 2.61855 7.4834 6.04544 4.60238 8.49323C-0.752408 14.6798 3.39961 22.189 6.02068 25.2C6.67053 25.5249 9.28132 28.5087 10.0611 29.6784C11.5688 29.3145 14.4152 29.0069 15.6499 28.8986C23.4481 29.2106 27.4772 23.4399 28.517 20.5155Z" fill="url(#paint0_linear_136_2)" stroke="#883E20" stroke-linejoin="round"/>
<path d="M9.81442 23.0837C9.9184 13.258 15.6198 9.80508 18.4575 9.30686L17.5477 8.26709C10.5293 11.1784 9.46783 19.3579 9.81442 23.0837Z" fill="#F08161"/>
<path d="M18.8474 7.61703C19.064 4.77933 21.6028 -0.116226 30.0249 3.00307C29.31 5.40752 26.0738 9.69655 18.8474 7.61703Z" fill="#A7A147" stroke="#883E20"/>
<path d="M19.3027 7.29204C20.1909 6.29559 22.9939 4.23772 27.101 3.97778C24.7832 5.08253 19.9786 7.29204 19.3027 7.29204Z" fill="#848038"/>
<defs>
<linearGradient id="paint0_linear_136_2" x1="15.3571" y1="5.24951" x2="15.3571" y2="29.6784" gradientUnits="userSpaceOnUse">
<stop stop-color="#FFB086"/>
<stop offset="1" stop-color="#FFB97D"/>
</linearGradient>
</defs>
</svg>
